<?xml version="1.0" encoding="utf-8"?>
<!-- Generator: Adobe Illustrator 15.0.0, SVG Export Plug-In . SVG Version: 6.00 Build 0)  -->
<!DOCTYPE svg PUBLIC "-//W3C//DTD SVG 1.1//EN" "http://www.w3.org/Graphics/SVG/1.1/DTD/svg11.dtd">
<svg version="1.1" id="Слой_1" xmlns="http://www.w3.org/2000/svg" xmlns:xlink="http://www.w3.org/1999/xlink" x="0px" y="0px"
	 width="100px" height="100px" viewBox="0 0 100 100" enable-background="new 0 0 100 100" xml:space="preserve">
<path d="M84.407,33.481c-6.963-11.852-19.333-18.963-33.11-18.963c-13.778,0-26.149,7.111-33.112,18.963
	c-0.37,0.593-0.37,1.259,0,1.852c6.963,11.852,19.333,18.963,33.112,18.963c13.777,0,26.147-7.112,33.11-18.963
	C84.703,34.815,84.703,34.074,84.407,33.481z M51.297,50.666c-12.075,0-22.963-6-29.334-16.222
	c6.371-10.148,17.259-16.222,29.334-16.222c12.074,0,22.963,6.074,29.333,16.222C74.26,44.593,63.371,50.666,51.297,50.666z"/>
<path d="M51.297,21.481c-7.112,0-12.963,5.852-12.963,12.963c0,7.111,5.852,12.963,12.963,12.963c7.11,0,12.963-5.852,12.963-12.963
	C64.26,27.333,58.407,21.481,51.297,21.481z M51.297,43.704c-5.112,0-9.26-4.148-9.26-9.259c0-5.111,4.148-9.259,9.26-9.259
	c5.11,0,9.259,4.148,9.259,9.259C60.556,39.556,56.407,43.704,51.297,43.704z"/>
<path d="M51.297,28.889c-3.038,0-5.556,2.519-5.556,5.556S48.259,40,51.297,40c3.037,0,5.555-2.519,5.555-5.556
	S54.334,28.889,51.297,28.889z M51.297,36.296c-1.038,0-1.853-0.815-1.853-1.852s0.815-1.852,1.853-1.852
	c1.037,0,1.852,0.814,1.852,1.852S52.334,36.296,51.297,36.296z"/>
</svg>
