<svg xmlns="http://www.w3.org/2000/svg" xmlns:xlink="http://www.w3.org/1999/xlink" version="1.1" id="Your_Icon" x="0px" y="0px" width="100px" height="100px" viewBox="5.0 -10.0 100.0 135.0" enable-background="new 0 0 100 100" xml:space="preserve">
<path id="Moon" d="M50,0C22.386,0,0,22.386,0,50c0,27.614,22.386,50,50,50s50-22.386,50-50C100,22.386,77.614,0,50,0z   M77.243,44.154c0.886-0.954,1.514-5.137,1.514-5.137s0.69,4.106,1.627,5.083c0.999,1.044,5.186,1.735,5.186,1.735  s-4.187,0.715-5.186,1.727c-0.986,0.994-1.627,5.085-1.627,5.085s-0.636-4.152-1.626-5.138c-0.986-0.99-5.192-1.674-5.192-1.674  S76.23,45.239,77.243,44.154z M59.908,34.887c0.518-0.557,0.883-2.998,0.883-2.998s0.404,2.397,0.951,2.967  c0.582,0.609,3.025,1.012,3.025,1.012s-2.444,0.419-3.025,1.009c-0.575,0.58-0.951,2.967-0.951,2.967s-0.37-2.424-0.948-2.998  c-0.575-0.578-3.03-0.978-3.03-0.978S59.318,35.519,59.908,34.887z M51.354,88.447c-21.233,0-38.445-17.215-38.445-38.447  c0-21.233,17.213-38.447,38.445-38.447c1.787,0,3.532,0.165,5.255,0.399C48.72,17.43,43.545,26.538,43.545,36.865  c0,16.748,13.574,30.319,30.319,30.319c4.747,0,9.225-1.12,13.226-3.065C81.459,78.356,67.599,88.447,51.354,88.447z"/>
</svg>