<svg xmlns="http://www.w3.org/2000/svg" xmlns:xlink="http://www.w3.org/1999/xlink" version="1.0" id="Layer_1" x="0px" y="0px" width="100px" height="100px" viewBox="5.0 -10.0 100.0 135.0" enable-background="new 0 0 100 100" xml:space="preserve">
<path d="M48.735,79.317V28.573h2.638l34.291,41.575L48.735,79.317z M94.708,68.014l5.024-1.257v-4.271l-5.653-0.628v-3.894  l-4.145-0.629v-3.265l-4.02-0.628v-3.518l-5.024-0.628v-3.642l-4.773-0.628v-3.768l-4.019-0.627v-4.145l-4.397-0.628v-4.396  L62.3,30.959v-8.29l-12.685-3.517v8.164h2.512l35.546,42.454l5.275-1.38L59.914,31.084h1.76L94.708,68.014z M47.605,79.317  L12.31,72.033l32.657-42.833v4.019h-1.758v4.522h-2.764v4.522h-2.638v4.521h-2.512v4.522h-2.763v4.522h-2.889v4.521h-3.015v4.521  H22.86v2.01l24.745,4.145V79.317z M36.677,31.084L5.276,70.274l5.652,1.255L43.46,29.327L36.677,31.084z M48.735,19.152  l-12.057,4.019v7.035l1.13-0.252V24.05l10.927-3.392V19.152z M0,69.017v-4.144l4.396-0.503v-4.145l4.647-0.629v-4.019l4.396-0.628  v-3.768l3.894-0.629v-3.392l3.769-0.628V42.64l4.019-0.627v-3.392l4.145-0.753v-4.522l5.778-1.758c0,0-25.498,31.527-31.15,38.309  L0,69.017z M40.194,29.201v-4.145l4.772-1.633v4.521L40.194,29.201z"/>
</svg>