<svg xmlns="http://www.w3.org/2000/svg" xmlns:xlink="http://www.w3.org/1999/xlink" version="1.1" id="Your_Icon" x="0px" y="0px" width="100px" height="100px" viewBox="5.0 -10.0 100.0 135.0" enable-background="new 0 0 100 100" xml:space="preserve">
<g>
	<path fill="#000000" d="M49.986,0.192c1.311,0.699,2.17,2.02,2.712,3.366c0.507,1.334,0.762,2.851,0.264,4.227   c-0.371,0.945-0.668,1.924-0.794,2.936c-0.478,3.157,0.636,6.567,3.064,8.684c0.628,0.541,1.33,1.153,2.21,1.144   c0.883,0.056,1.658-0.66,1.838-1.496c0.333-1.056-0.078-2.204,0.319-3.246c0.488-1.367,1.608-2.397,2.809-3.153   c1.62-1.008,3.516-1.552,5.42-1.608c1.893-0.124,3.858-0.525,5.4-1.691c0.832-0.604,1.351-1.521,1.746-2.446   c0.692,0.95,0.785,2.203,0.759,3.342c-0.07,1.458-0.538,2.926-1.431,4.09c-0.6,0.707-1.419,1.187-2.021,1.894   c-1.877,1.969-2.972,4.694-2.829,7.422c0.097,1.353,0.424,2.715,1.104,3.896c0.473,0.806,1.557,1.156,2.398,0.726   c0.842-0.46,1.306-1.341,1.73-2.163c0.56-1.037,1.656-1.647,2.754-1.963c2.432-0.637,5.062-0.185,7.263,0.983   c1.74,0.855,3.675,1.545,5.644,1.311c1.053-0.117,1.987-0.651,2.815-1.282c0.064,1.334-0.551,2.609-1.308,3.675   c-0.71,0.991-1.653,1.828-2.762,2.346c-0.888,0.428-1.906,0.38-2.826,0.707c-2.679,0.743-5.068,2.591-6.32,5.091   c-0.618,1.297-1.049,2.746-0.881,4.194c0.107,0.95,1.068,1.651,2.005,1.527c1.038-0.014,1.853-0.716,2.73-1.17   c1.23-0.515,2.638-0.291,3.845,0.189c2.084,0.847,3.905,2.358,5.078,4.282c1.122,1.68,2.542,3.325,4.496,4.021   c0.886,0.346,1.855,0.308,2.781,0.181c-0.643,1.271-1.921,2.1-3.199,2.644c-0.996,0.397-2.075,0.659-3.155,0.583   c-1.182-0.083-2.217-0.741-3.379-0.922c-3.274-0.737-6.939,0.235-9.254,2.707c-0.532,0.632-1.171,1.256-1.331,2.101   c-0.187,0.821,0.289,1.729,1.087,2.017c1.27,0.562,2.743-0.073,3.983,0.592c1.644,0.804,2.747,2.394,3.457,4.032   c0.649,1.444,0.833,3.036,0.906,4.604c0.195,1.787,0.645,3.655,1.859,5.035c0.614,0.706,1.43,1.218,2.329,1.474   c-2.062,1.267-4.795,0.944-6.848-0.185c-1.04-0.514-1.6-1.572-2.422-2.334c-1.9-1.86-4.529-3.049-7.212-2.962   c-1.249-0.035-2.485,0.277-3.627,0.767c-0.637,0.271-1.273,0.716-1.461,1.418c-0.241,0.736,0.096,1.551,0.66,2.042   c0.787,0.787,1.99,1.023,2.667,1.936c0.888,1.136,1.171,2.604,1.248,4.011c-0.021,1.746-0.39,3.502-1.205,5.056   c-1.009,1.982-1.823,4.287-1.227,6.518c0.176,0.784,0.668,1.425,1.112,2.072c-1.343,0.07-2.618-0.564-3.688-1.32   c-0.955-0.688-1.758-1.6-2.285-2.655c-0.389-0.743-0.402-1.6-0.608-2.397c-0.684-3.02-2.749-5.741-5.596-7.015   c-1.16-0.492-2.42-0.834-3.686-0.756c-0.881,0.03-1.634,0.812-1.654,1.688c-0.036,0.99,0.551,1.846,1.049,2.655   c0.615,1.021,0.576,2.295,0.241,3.403c-0.688,2.303-2.288,4.301-4.303,5.591c-1.719,1.124-3.405,2.528-4.161,4.497   c-0.38,0.918-0.359,1.934-0.213,2.899c-1.214-0.6-2.02-1.807-2.568-3.009c-0.61-1.433-0.94-3.099-0.39-4.604   c0.367-0.94,0.684-1.911,0.778-2.921c0.473-3.227-0.703-6.729-3.257-8.814c-0.711-0.62-1.676-1.229-2.65-0.88   c-0.86,0.258-1.343,1.161-1.375,2.018c-0.167,0.791,0.108,1.604-0.146,2.383c-0.406,1.411-1.518,2.496-2.711,3.288   c-1.62,1.076-3.548,1.684-5.491,1.741c-1.93,0.138-3.951,0.482-5.53,1.68c-0.799,0.59-1.361,1.435-1.722,2.351   c-0.045,0.031-0.133,0.092-0.177,0.123c-0.794-1.617-0.842-3.516-0.33-5.223c0.33-1.108,0.902-2.189,1.834-2.905   c1.649-1.292,2.942-3.048,3.623-5.034c0.684-2.053,0.693-4.347-0.089-6.375c-0.267-0.715-0.606-1.521-1.35-1.853   c-0.7-0.344-1.574-0.133-2.106,0.416c-0.902,0.794-1.104,2.131-2.1,2.834c-1.171,0.878-2.676,1.204-4.117,1.186   c-1.754,0.007-3.497-0.47-5.045-1.285c-1.867-0.95-4.002-1.61-6.106-1.192c-0.863,0.174-1.586,0.684-2.302,1.165   c-0.041-1.514,0.712-2.933,1.642-4.08c0.938-1.108,2.181-2.064,3.65-2.286c2.822-0.378,5.534-1.863,7.188-4.21   c1.109-1.587,1.823-3.541,1.625-5.496c-0.181-1.042-1.36-1.694-2.353-1.375c-1.135,0.207-1.941,1.188-3.08,1.377   c-1.275,0.243-2.569-0.134-3.715-0.682c-1.711-0.838-3.213-2.13-4.243-3.738c-1.117-1.722-2.516-3.424-4.479-4.192   c-0.945-0.4-1.996-0.393-2.994-0.232c0.979-1.685,2.826-2.685,4.682-3.094c1.042-0.249,2.155-0.206,3.153,0.2   c2.372,0.95,5.09,1.108,7.512,0.25c1.904-0.658,3.582-1.96,4.688-3.645c0.555-0.814,0.482-2.092-0.397-2.652   c-1.333-0.894-3.065-0.047-4.432-0.826c-1.586-0.819-2.664-2.365-3.357-3.968c-0.525-1.25-0.824-2.592-0.865-3.947   c-0.119-1.896-0.508-3.869-1.663-5.423c-0.629-0.833-1.518-1.472-2.53-1.75c0.177-0.229,0.462-0.318,0.719-0.427   c1.793-0.66,3.818-0.454,5.544,0.314c0.787,0.345,1.494,0.877,2.006,1.573c1.752,2.186,4.356,3.75,7.176,3.981   c1.666,0.132,3.381-0.118,4.88-0.879c0.729-0.366,1.364-1.108,1.257-1.972c-0.046-1.212-1.221-1.889-2.164-2.405   c-1.039-0.479-1.689-1.506-2.031-2.562c-0.628-1.963-0.479-4.114,0.166-6.052c0.293-0.95,0.84-1.79,1.199-2.713   c0.702-1.674,1.148-3.577,0.643-5.365c-0.197-0.758-0.679-1.385-1.102-2.026c1.749,0.005,3.377,0.938,4.61,2.126   c0.909,0.908,1.662,2.062,1.795,3.368c0.448,3.118,2.323,6.049,5.104,7.579c1.379,0.741,2.958,1.206,4.532,1.066   c0.874-0.114,1.558-0.967,1.471-1.846c-0.03-1.467-1.425-2.45-1.498-3.905c-0.141-1.8,0.697-3.512,1.718-4.94   c0.77-1.039,1.722-1.947,2.82-2.632c1.614-1.049,3.162-2.354,3.998-4.127C50.119,2.452,50.186,1.292,49.986,0.192z"/>
</g>
</svg>